<?xml version="1.0" encoding="utf-8"?>
<svg xmlns="http://www.w3.org/2000/svg" viewBox="-45.255 -39.751 550 450" xmlns:bx="https://boxy-svg.com" width="550px" height="450px"><defs><bx:grid x="154.745" y="60.249" width="100" height="100"/><bx:export><bx:file format="png" path="SK.png"/><bx:file format="svg" path="SK.svg"/></bx:export></defs><path d="M 404.745 210.249 L 404.783 210.249 C 459.994 210.269 504.745 255.033 504.745 310.249 L 504.745 410.249 L 304.745 410.249 L 304.745 -39.751 L 504.745 -39.751 L 504.745 60.249 C 504.745 115.477 459.973 160.249 404.745 160.249 Z M 254.745 210.249 C 254.745 320.706 165.202 410.249 54.745 410.249 L -45.255 410.249 L -45.255 210.249 L 154.745 210.249 L 154.745 160.249 L -45.255 160.249 L -45.255 160.204 C -45.231 49.785 44.274 -39.722 154.692 -39.751 L 254.745 -39.751 Z" style="stroke: rgb(0, 0, 0); stroke-width: 1;"/></svg>